<?xml version="1.0" encoding="UTF-8"?>
<svg width="408px" height="56px" viewBox="0 0 408 56" version="1.1" 
    xmlns="http://www.w3.org/2000/svg" 
    xmlns:xlink="http://www.w3.org/1999/xlink">
    <!-- Generator: Sketch 49.3 (51167) - http://www.bohemiancoding.com/sketch -->
    <title>BTdniT3R</title>
    <desc>Created with Sketch.</desc>
    <defs></defs>
    <g id="Page-1" stroke="none" stroke-width="1" fill="none" fill-rule="evenodd">
        <path d="M0.8,0 L36.72,0 C43.12,0 46.96,2.48 49.04,4.56 C51.12,6.64 53.6,10.48 53.6,16.88 C53.6,22.24 51.92,25.76 50.16,28 C51.92,30.24 53.6,33.76 53.6,39.12 C53.6,45.52 51.12,49.36 49.04,51.44 C46.96,53.52 43.12,56 36.72,56 L0.8,56 L0.8,0 Z M12.32,11.52 L12.32,22.24 L36.72,22.24 C38.08,22.24 39.92,22 40.88,21.04 C41.92,20.08 42.08,18.24 42.08,16.88 C42.08,15.52 41.92,13.68 40.88,12.72 C39.92,11.76 38.08,11.52 36.72,11.52 L12.32,11.52 Z M12.32,33.76 L12.32,44.48 L36.72,44.48 C38.08,44.48 39.92,44.24 40.88,43.28 C41.92,42.32 42.08,40.48 42.08,39.12 C42.08,37.76 41.92,35.92 40.88,34.96 C39.92,34 38.08,33.76 36.72,33.76 L12.32,33.76 Z M106.48,11.52 L88.16,11.52 L88.16,56 L76.64,56 L76.64,11.52 L58.4,11.52 L58.4,0 L106.48,0 L106.48,11.52 Z M114.48,0 L139.28,0 C143.52,0 147.36,0.56 150.72,1.76 C154.32,3.04 157.36,4.96 159.84,7.44 C162.32,9.92 164.24,13.04 165.52,16.56 C166.72,20 167.28,23.84 167.28,28 C167.28,32.16 166.72,36 165.52,39.44 C164.24,42.96 162.32,46.08 159.84,48.56 C157.36,51.04 154.32,52.96 150.72,54.24 C147.36,55.36 143.52,56 139.28,56 L114.48,56 L114.48,0 Z M117.04,2.56 L117.04,53.44 L139.28,53.44 C143.12,53.44 146.64,52.88 149.92,51.84 C153.04,50.72 155.76,48.96 158,46.72 C160.24,44.56 161.92,41.84 163.12,38.56 C164.16,35.52 164.72,31.92 164.72,28 C164.72,24.08 164.16,20.48 163.12,17.44 C161.92,14.16 160.24,11.44 158,9.28 C155.76,7.04 153.04,5.28 149.84,4.16 C146.88,3.12 143.28,2.56 139.28,2.56 L117.04,2.56 Z M123.44,8.96 L139.28,8.96 C142.32,8.96 145.04,9.36 147.36,10.08 C149.76,10.88 151.84,12.16 153.52,13.76 C155.12,15.44 156.4,17.52 157.2,19.92 C157.92,22.24 158.32,24.96 158.32,28 C158.32,31.04 157.92,33.76 157.2,36.08 C156.4,38.48 155.12,40.56 153.52,42.24 C151.84,43.84 149.76,45.12 147.36,45.92 C145.04,46.64 142.32,47.04 139.28,47.04 L123.44,47.04 L123.44,8.96 Z M126,11.52 L126,44.48 L139.28,44.48 C150.4,44.48 155.76,39.12 155.76,28 C155.76,16.88 150.4,11.52 139.28,11.52 L126,11.52 Z M225.76,56 L217.36,56 L186,20.88 L186,56 L174.48,56 L174.48,0 L182.8,0 L214.24,35.12 L214.24,0 L225.76,0 L225.76,56 Z M216.8,2.56 L216.8,41.84 L181.68,2.56 L177.04,2.56 L177.04,53.44 L183.44,53.44 L183.44,14.16 L218.48,53.44 L223.2,53.44 L223.2,2.56 L216.8,2.56 Z M246.88,56 L235.36,56 L235.36,0 L246.88,0 L246.88,56 Z M237.92,2.56 L237.92,53.44 L244.32,53.44 L244.32,2.56 L237.92,2.56 Z M302.96,11.52 L284.64,11.52 L284.64,56 L273.12,56 L273.12,11.52 L254.88,11.52 L254.88,0 L302.96,0 L302.96,11.52 Z M327.84,0 C334.08,0 339.2,1.28 342.88,3.92 C345.04,5.44 346.64,7.28 347.76,9.52 C348.88,11.76 349.44,14.16 349.44,16.88 C349.44,19.52 348.88,22 347.76,24.24 C347.12,25.6 346.16,26.88 345.04,28 C346.16,29.12 347.12,30.4 347.76,31.76 C348.88,34 349.44,36.48 349.44,39.12 C349.44,41.76 348.88,44.24 347.76,46.48 C346.64,48.72 345.04,50.56 342.88,52.08 C339.2,54.64 334.08,56 327.84,56 C321.36,56 316.24,54.48 312.4,51.44 C308.32,48.16 306.16,43.36 306.16,37.52 L317.68,37.52 C317.68,40.56 318.8,41.76 319.6,42.48 C321.28,43.76 324.16,44.48 327.84,44.48 C331.6,44.48 334.56,43.84 336.24,42.64 C337.12,42.08 337.92,41.2 337.92,39.12 C337.92,37.04 337.12,36.16 336.24,35.6 C334.56,34.4 331.6,33.76 327.84,33.76 L321.44,33.76 L321.44,22.24 L327.84,22.24 C331.6,22.24 334.56,21.6 336.24,20.4 C337.12,19.84 337.92,18.96 337.92,16.88 C337.92,14.8 337.12,13.92 336.24,13.36 C334.56,12.16 331.6,11.52 327.84,11.52 C324.16,11.52 321.28,12.24 319.6,13.52 C318.8,14.24 317.68,15.44 317.68,18.48 L306.16,18.48 C306.16,12.64 308.32,7.84 312.4,4.56 C316.24,1.52 321.36,0 327.84,0 Z M357.44,0 L387.04,0 C399.44,0 407.12,7.68 407.12,20.08 C407.12,29.44 402.64,36.16 395.04,38.8 L407.12,56 L393.04,56 L381.92,40.08 L368.96,40.08 L368.96,56 L357.44,56 L357.44,0 Z M368.96,11.52 L368.96,28.56 L387.04,28.56 C390,28.56 392.24,27.92 393.52,26.56 C394.88,25.2 395.6,23.04 395.6,20.08 C395.6,17.04 394.88,14.88 393.52,13.52 C392.24,12.16 390,11.52 387.04,11.52 L368.96,11.52 Z" id="BTdniT3R" fill="#000"></path>
    </g>
</svg>